<mxfile host="app.diagrams.net" modified="2023-03-27T02:24:04.226Z" agent="Mozilla/5.0 (Macintosh; Intel Mac OS X 10_15_7) AppleWebKit/537.36 (KHTML, like Gecko) Chrome/111.0.0.0 Safari/537.36" version="21.1.1" etag="OhfxHJAoL1OqL99ni4Jf" type="github">
  <diagram name="第 1 页" id="RO7oah_zqTODiTXL4wLf">
    <mxGraphModel>
      <root>
        <mxCell id="0" />
        <mxCell id="1" parent="0" />
      </root>
    </mxGraphModel>
  </diagram>
</mxfile>
